<?xml version="1.0" encoding="iso-8859-1"?>
<!-- Generator: Adobe Illustrator 19.0.0, SVG Export Plug-In . SVG Version: 6.00 Build 0)  -->
<svg version="1.1" id="Capa_1" xmlns="http://www.w3.org/2000/svg" xmlns:xlink="http://www.w3.org/1999/xlink" x="0px" y="0px"
	 viewBox="0 0 480.004 480.004" style="enable-background:new 0 0 480.004 480.004;" xml:space="preserve">
<g>
	<g>
		<path d="M391.271,359.047c-2.46-9.121-10.884-15.341-20.324-15.008h-0.086l-168.496,15.766l-21.234-14.156
			c-1.407-1.067-3.125-1.645-4.891-1.644h-40.238c0-4.418-3.582-8-8-8h-32c-4.418,0-8,3.582-8,8v96c0,4.418,3.582,8,8,8h32
			c4.418,0,8-3.582,8-8h14.172l70.516,39c2.556,1.415,5.681,1.323,8.148-0.242l153.023-96.879
			C389.859,377.326,393.737,367.916,391.271,359.047z M120.002,432.004h-16v-80h16V432.004z M373.564,368.207l-149.277,94.504
			l-68.176-37.707c-1.185-0.656-2.517-1-3.871-1h-16.238v-64h37.816l21.984,14.656c0.073,0.049,0.168,0.06,0.243,0.106
			l30.437,20.242c5.453,3.573,6.976,10.89,3.403,16.343c-0.16,0.245-0.33,0.483-0.508,0.716c-3.922,4.964-10.958,6.169-16.309,2.793
			l-32.402-21.519l-8.852,13.328l32.457,21.555c12.36,8.186,28.957,5.331,37.871-6.516c9.295-12.216,6.928-29.654-5.288-38.949
			c-0.502-0.382-1.017-0.747-1.544-1.094l-11.734-7.803l148.027-13.857c1.996-0.091,3.772,1.259,4.219,3.207
			C376.397,365.205,375.441,367.321,373.564,368.207z"/>
	</g>
</g>
<g>
	<g>
		<path d="M409.123,298.984c-2.5,4.645-5.227,9.23-8.098,13.641l13.406,8.734c3.113-4.777,6.066-9.754,8.777-14.781L409.123,298.984
			z"/>
	</g>
</g>
<g>
	<g>
		<path d="M64.432,285.84l-14.625,6.484c2.305,5.199,4.867,10.379,7.617,15.398l14.031-7.679
			C68.92,295.41,66.557,290.629,64.432,285.84z"/>
	</g>
</g>
<g>
	<g>
		<path d="M421.799,269.922c-1.691,4.965-3.621,9.945-5.734,14.805l14.672,6.383c2.289-5.257,4.375-10.648,6.211-16.023
			L421.799,269.922z"/>
	</g>
</g>
<g>
	<g>
		<path d="M54.033,255.93l-15.5,3.977c1.422,5.527,3.09,11.063,4.965,16.453l15.109-5.258
			C56.881,266.133,55.342,261.027,54.033,255.93z"/>
	</g>
</g>
<g>
	<g>
		<path d="M429.486,239.188c-0.852,5.195-1.93,10.422-3.207,15.531l15.523,3.883c1.383-5.54,2.555-11.204,3.473-16.836
			L429.486,239.188z"/>
	</g>
</g>
<g>
	<g>
		<path d="M48.713,224.684l-15.938,1.375c0.492,5.715,1.223,11.449,2.176,17.043l15.773-2.688
			C49.846,235.254,49.17,229.961,48.713,224.684z"/>
	</g>
</g>
<g>
	<g>
		<path d="M432.002,208.004c0,5.148-0.207,10.34-0.613,15.441l15.953,1.266c0.438-5.516,0.66-11.137,0.66-16.707v-0.43
			L432.002,208.004z"/>
	</g>
</g>
<g>
	<g>
		<path d="M32.701,190.844c-0.465,5.668-0.699,11.441-0.699,17.16v0.863h16v-0.863c0-5.285,0.219-10.621,0.645-15.855
			L32.701,190.844z"/>
	</g>
</g>
<g>
	<g>
		<path d="M445.127,173.351L429.346,176c0.867,5.164,1.535,10.457,1.977,15.738l15.945-1.344
			C446.787,184.679,446.065,178.945,445.127,173.351z"/>
	</g>
</g>
<g>
	<g>
		<path d="M38.311,156.977c-1.398,5.551-2.574,11.207-3.504,16.816l15.781,2.617c0.859-5.18,1.949-10.402,3.238-15.527
			L38.311,156.977z"/>
	</g>
</g>
<g>
	<g>
		<path d="M436.654,140.078l-15.125,5.219c1.715,4.965,3.242,10.074,4.551,15.191l15.5-3.953
			C440.166,150.992,438.51,145.453,436.654,140.078z"/>
	</g>
</g>
<g>
	<g>
		<path d="M49.448,124.488c-2.301,5.25-4.402,10.637-6.246,16.012l15.133,5.195c1.703-4.961,3.644-9.938,5.769-14.793
			L49.448,124.488z"/>
	</g>
</g>
<g>
	<g>
		<path d="M422.799,108.68l-14.055,7.648c2.523,4.637,4.879,9.422,7,14.223l14.633-6.461
			C428.08,118.887,425.529,113.699,422.799,108.68z"/>
	</g>
</g>
<g>
	<g>
		<path d="M65.814,94.277c-3.133,4.801-6.094,9.766-8.801,14.758l14.063,7.625c2.5-4.609,5.238-9.195,8.137-13.633L65.814,94.277z"
			/>
	</g>
</g>
<g>
	<g>
		<path d="M403.951,79.984l-12.602,9.859c3.254,4.16,6.363,8.496,9.246,12.883l13.375-8.781
			C410.846,89.188,407.475,84.492,403.951,79.984z"/>
	</g>
</g>
<g>
	<g>
		<path d="M86.916,67.184c-3.879,4.219-7.617,8.629-11.105,13.113l12.625,9.828c3.222-4.141,6.672-8.211,10.254-12.106
			L86.916,67.184z"/>
	</g>
</g>
<g>
	<g>
		<path d="M380.658,54.766l-10.82,11.789c3.863,3.547,7.645,7.316,11.234,11.203l11.75-10.859
			C388.939,62.691,384.846,58.609,380.658,54.766z"/>
	</g>
</g>
<g>
	<g>
		<path d="M112.166,43.918c-4.5,3.508-8.906,7.246-13.102,11.113l10.844,11.766c3.875-3.57,7.942-7.023,12.094-10.262
			L112.166,43.918z"/>
	</g>
</g>
<g>
	<g>
		<path d="M353.541,33.699l-8.742,13.398c4.406,2.879,8.75,5.977,12.914,9.215l9.82-12.633
			C363.025,40.176,358.318,36.816,353.541,33.699z"/>
	</g>
</g>
<g>
	<g>
		<path d="M140.873,25.101c-5.016,2.723-9.973,5.687-14.742,8.812l8.766,13.383c4.402-2.883,8.984-5.621,13.609-8.133
			L140.873,25.101z"/>
	</g>
</g>
<g>
	<g>
		<path d="M323.318,17.363l-6.406,14.664c4.816,2.105,9.609,4.445,14.254,6.953l7.609-14.07
			C333.744,22.188,328.545,19.648,323.318,17.363z"/>
	</g>
</g>
<g>
	<g>
		<path d="M172.287,11.278c-5.402,1.859-10.785,3.965-16,6.261l6.453,14.641c4.805-2.117,9.766-4.059,14.75-5.77L172.287,11.278z"/>
	</g>
</g>
<g>
	<g>
		<path d="M290.811,6.258l-3.891,15.516c5.102,1.281,10.215,2.797,15.199,4.5l5.179-15.141
			C301.893,9.285,296.346,7.645,290.811,6.258z"/>
	</g>
</g>
<g>
	<g>
		<path d="M205.572,2.84c-5.637,0.941-11.297,2.129-16.816,3.527l3.93,15.508c5.094-1.289,10.316-2.383,15.527-3.254L205.572,2.84z"
			/>
	</g>
</g>
<g>
	<g>
		<path d="M256.932,0.688l-1.281,15.945c5.258,0.426,10.555,1.074,15.738,1.93l2.602-15.789
			C268.373,1.848,262.635,1.145,256.932,0.688z"/>
	</g>
</g>
<g>
	<g>
		<path d="M239.779,0c-5.703,0.008-11.477,0.25-17.156,0.719l1.312,15.945c5.254-0.434,10.594-0.656,15.867-0.664L239.779,0z"/>
	</g>
</g>
<g>
	<g>
		<path d="M199.691,235.431c-0.636-0.695-1.302-1.362-1.998-1.998c-12.729-11.564-31.849-12.542-45.691-2.336
			c-13.842-10.206-32.962-9.228-45.691,2.336c-12.923,11.819-13.817,31.877-1.998,44.799c0.636,0.695,1.302,1.362,1.998,1.998v0
			l40.227,37.617c3.076,2.875,7.854,2.875,10.93,0l40.227-37.617C210.616,268.411,211.51,248.354,199.691,235.431z M188.004,267.303
			c-0.39,0.436-0.804,0.85-1.24,1.24l-34.762,32.508l-34.762-32.508c-6.468-5.783-7.023-15.715-1.24-22.182
			c0.39-0.436,0.804-0.85,1.24-1.24c7.545-6.863,19.071-6.865,26.617-0.004l2.68,2.508c3.073,2.883,7.857,2.883,10.93,0l2.68-2.504
			c7.544-6.867,19.074-6.867,26.617,0C193.232,250.904,193.787,260.836,188.004,267.303z"/>
	</g>
</g>
<g>
	<g>
		<rect x="296.002" y="240.004" width="16" height="16"/>
	</g>
</g>
<g>
	<g>
		<rect x="328.002" y="240.004" width="16" height="16"/>
	</g>
</g>
<g>
	<g>
		<path d="M331.002,270.312c-3.607,6.075-11.456,8.076-17.531,4.469c-1.84-1.092-3.377-2.629-4.469-4.469l-12.289,10.242
			c9.142,12.862,26.979,15.878,39.842,6.736c2.607-1.853,4.884-4.13,6.736-6.736L331.002,270.312z"/>
	</g>
</g>
<g>
	<g>
		<path d="M320.002,208.004c-30.914,0.035-55.965,25.086-56,56c0,30.928,25.072,56,56,56c30.928,0,56-25.072,56-56
			C376.002,233.076,350.93,208.004,320.002,208.004z M320.002,304.004c-22.091,0-40-17.909-40-40c0.026-22.081,17.919-39.974,40-40
			c22.091,0,40,17.909,40,40C360.002,286.095,342.093,304.004,320.002,304.004z"/>
	</g>
</g>
<g>
	<g>
		<path d="M300.064,112.004c2.566-3.474,3.947-7.681,3.938-12c0.087-10.94-8.697-19.886-19.637-20h-30.789v-12
			c0.199-10.844-8.43-19.797-19.274-19.996c-10.844-0.2-19.797,8.43-19.996,19.273c-0.004,0.241-0.004,0.482,0,0.722v12h-46.305
			c-4.418,0-8,3.582-8,8v72c0,4.418,3.582,8,8,8h116.363c10.94-0.114,19.724-9.06,19.637-20c0.009-4.319-1.371-8.526-3.938-12
			C305.314,128.865,305.314,119.143,300.064,112.004z M192.002,152.004h-16v-56h16V152.004z M284.365,120.004
			c2.209,0.211,3.829,2.172,3.618,4.382c-0.183,1.918-1.701,3.435-3.618,3.618c-4.418,0-8,3.582-8,8s3.582,8,8,8
			c2.209,0.211,3.829,2.172,3.618,4.382c-0.183,1.918-1.701,3.435-3.618,3.618h-76.363v-56h14.305c4.418,0,8-3.582,8-8v-20
			c-0.193-2.007,1.279-3.791,3.286-3.983c2.007-0.193,3.791,1.279,3.983,3.286c0.022,0.232,0.022,0.465,0,0.697v20
			c0,4.418,3.582,8,8,8h38.789c2.209,0.211,3.829,2.172,3.618,4.382c-0.183,1.918-1.701,3.435-3.618,3.618c-4.418,0-8,3.582-8,8
			S279.947,120.004,284.365,120.004z"/>
	</g>
</g>
<g>
</g>
<g>
</g>
<g>
</g>
<g>
</g>
<g>
</g>
<g>
</g>
<g>
</g>
<g>
</g>
<g>
</g>
<g>
</g>
<g>
</g>
<g>
</g>
<g>
</g>
<g>
</g>
<g>
</g>
</svg>
