<?xml version="1.0" encoding="iso-8859-1"?>
<!-- Generator: Adobe Illustrator 19.0.0, SVG Export Plug-In . SVG Version: 6.00 Build 0)  -->
<svg version="1.1" id="Capa_1" xmlns="http://www.w3.org/2000/svg" xmlns:xlink="http://www.w3.org/1999/xlink" x="0px" y="0px"
	 viewBox="0 0 480 480" style="enable-background:new 0 0 480 480;" xml:space="preserve">
<g>
	<g>
		<path d="M240,0C107.452,0,0,107.452,0,240s107.452,240,240,240s240-107.452,240-240c0-0.001,0-0.003,0-0.004
			C479.85,107.511,372.485,0.148,240,0z M240,464C116.288,464,16,363.712,16,240S116.288,16,240,16
			c123.71,0,223.998,100.286,224,223.996C463.862,363.651,363.655,463.859,240,464z"/>
	</g>
</g>
<g>
	<g>
		<path d="M355.886,121.008c-2.417-1.343-5.356-1.343-7.772,0l-144,80c-1.359,0.754-2.468,1.889-3.191,3.266l-80,152
			c-2.057,3.911-0.555,8.749,3.356,10.806c2.492,1.311,5.49,1.216,7.894-0.252l144-88c1.179-0.72,2.15-1.734,2.82-2.941l80-144
			C361.138,128.025,359.748,123.154,355.886,121.008z M148.602,338.035l61.42-116.701l49.138,49.138L148.602,338.035z
			 M270.158,258.845l-49.002-49.002l110.254-61.253L270.158,258.845z"/>
	</g>
</g>
<g>
	<g>
		<path d="M240,32C125.125,32,32,125.125,32,240s93.125,208,208,208s208-93.125,208-208C447.87,125.179,354.821,32.13,240,32z
			 M248,431.797V400h-16v31.797C132.316,427.521,52.479,347.684,48.203,248H80v-16H48.203C52.479,132.316,132.316,52.476,232,48.198
			V80h16V48.198C347.684,52.476,427.521,132.316,431.797,232H400v16h31.797C427.522,347.684,347.684,427.521,248,431.797z"/>
	</g>
</g>
<g>
</g>
<g>
</g>
<g>
</g>
<g>
</g>
<g>
</g>
<g>
</g>
<g>
</g>
<g>
</g>
<g>
</g>
<g>
</g>
<g>
</g>
<g>
</g>
<g>
</g>
<g>
</g>
<g>
</g>
</svg>
